<?xml version="1.0" encoding="utf-8"?>
<svg viewBox="0 0 500 500" xmlns="http://www.w3.org/2000/svg">
  <path fill="#fcee0a" d="M0 0 L 500 0 L 500 500 L 0 500 Z" />
  <polygon id="Path" fill="#52BEDC" points="230.825 112.148 254.883 98.257 278.94 112.148 292.309 88.994 254.883 67.383 217.456 88.994" />
  <polygon id="Path" fill="#52BEDC" points="143.301 347.085 119.238 333.193 119.238 176.572 143.301 162.681 129.932 139.521 92.505 161.133 92.505 348.633 129.932 370.244" />
  <polygon id="Path" fill="#52BEDC" points="379.834 139.521 366.465 162.681 390.527 176.572 390.527 333.193 366.465 347.085 379.834 370.244 417.261 348.633 417.261 161.133" />
  <polygon id="Path" fill="#52BEDC" points="278.94 397.617 254.883 411.509 230.825 397.617 217.456 420.771 254.883 442.383 292.309 420.771" />
  <polygon id="Path" fill="#000" points="225.942 107.266 250 93.374 274.057 107.266 287.427 84.111 250 62.5 212.573 84.111" />
  <polygon id="Path" fill="#000" points="138.418 342.202 114.355 328.31 114.355 171.689 138.418 157.798 125.049 134.639 87.622 156.25 87.622 343.75 125.049 365.361" />
  <polygon id="Path" fill="#000" points="374.951 134.639 361.582 157.798 385.644 171.689 385.644 328.31 361.582 342.202 374.951 365.361 412.378 343.75 412.378 156.25" />
  <polygon id="Path" fill="#000" points="274.057 392.734 250 406.626 225.942 392.734 212.573 415.888 250 437.5 287.427 415.888" />
  <path  fill="#52BEDC" d="M 272.792 166.826 C 274.442 163.925 272.792 160.057 269.393 159.67 C 243.953 156.092 217.93 162.378 197.151 177.657 C 195.306 179.108 194.723 181.815 195.986 183.943 L 225.213 234.423 C 227.058 237.614 231.718 237.614 233.66 234.423 L 272.792 166.826 Z M 345.365 220.081 C 335.891 196.189 317.136 176.94 293.644 166.88 C 291.42 165.912 288.81 166.88 287.553 169.008 L 258.454 219.404 C 256.617 222.5 258.937 226.562 262.708 226.562 L 340.822 226.562 C 344.205 226.562 346.622 223.177 345.365 220.081 Z M 346.058 235.84 L 286.092 235.84 C 282.417 235.84 279.999 239.894 281.933 243.08 L 323.136 314.418 C 324.78 317.314 328.939 317.797 331.067 315.19 C 347.896 294.146 355.053 266.634 350.894 239.991 C 350.604 237.577 348.476 235.84 346.058 235.84 Z M 179.181 195.065 C 162.447 216.231 155.192 243.583 159.352 270.355 C 159.642 272.674 161.77 274.414 164.188 274.414 L 224.161 274.414 C 227.837 274.414 230.255 270.355 228.32 267.165 L 187.113 195.838 C 185.372 192.939 181.213 192.456 179.181 195.065 Z M 164.888 290.258 C 174.362 314.112 193.117 333.331 216.609 343.375 C 218.832 344.34 221.443 343.375 222.699 341.25 L 251.798 290.934 C 253.635 287.747 251.315 283.691 247.641 283.691 L 169.432 283.691 C 166.048 283.788 163.631 287.168 164.888 290.258 Z M 240.842 350.585 C 266.257 354.158 292.253 347.88 313.012 332.62 C 314.952 331.171 315.534 328.37 314.273 326.245 L 285.075 275.828 C 283.232 272.641 278.576 272.641 276.636 275.828 L 237.446 343.341 C 235.797 346.238 237.543 350.102 240.842 350.585 Z" />
  <path fill="#000" d="M 267.909 161.943 C 269.56 159.042 267.909 155.174 264.51 154.787 C 239.07 151.209 213.047 157.495 192.268 172.774 C 190.423 174.225 189.841 176.933 191.103 179.06 L 220.33 229.54 C 222.175 232.731 226.836 232.731 228.778 229.54 L 267.909 161.943 Z M 340.483 215.199 C 331.008 191.306 312.253 172.057 288.761 161.997 C 286.538 161.03 283.927 161.997 282.671 164.125 L 253.571 214.522 C 251.734 217.617 254.055 221.68 257.825 221.68 L 335.939 221.68 C 339.323 221.68 341.739 218.294 340.483 215.199 Z M 341.175 230.957 L 281.21 230.957 C 277.534 230.957 275.116 235.011 277.051 238.197 L 318.253 309.535 C 319.897 312.431 324.056 312.914 326.184 310.308 C 343.013 289.263 350.17 261.751 346.011 235.108 C 345.721 232.695 343.593 230.957 341.175 230.957 Z M 174.299 190.182 C 157.564 211.349 150.31 238.7 154.469 265.472 C 154.759 267.791 156.887 269.531 159.305 269.531 L 219.278 269.531 C 222.954 269.531 225.372 265.472 223.437 262.282 L 182.23 190.956 C 180.489 188.056 176.33 187.573 174.299 190.182 Z M 160.005 285.376 C 169.479 309.23 188.234 328.448 211.726 338.492 C 213.95 339.458 216.56 338.492 217.817 336.367 L 246.916 286.052 C 248.752 282.865 246.432 278.808 242.759 278.808 L 164.549 278.808 C 161.165 278.905 158.749 282.285 160.005 285.376 Z M 235.959 345.702 C 261.374 349.276 287.371 342.998 308.129 327.737 C 310.069 326.288 310.652 323.487 309.39 321.363 L 280.192 270.945 C 278.349 267.758 273.693 267.758 271.753 270.945 L 232.564 338.458 C 230.915 341.356 232.661 345.219 235.959 345.702 Z" />
</svg>